<?xml version="1.0" standalone="no"?>
<!DOCTYPE svg PUBLIC "-//W3C//DTD SVG 20010904//EN"
 "http://www.w3.org/TR/2001/REC-SVG-20010904/DTD/svg10.dtd">
<svg version="1.0" xmlns="http://www.w3.org/2000/svg"
 width="500.000000pt" height="500.000000pt" viewBox="0 0 500.000000 500.000000"
 preserveAspectRatio="xMidYMid meet">

<g transform="translate(0.000000,500.000000) scale(0.100000,-0.100000)"
fill="#000000" stroke="none">
<path d="M2290 4303 c-57 -5 -211 -35 -206 -40 2 -2 42 3 90 12 47 9 139 20
203 24 109 8 112 8 33 8 -47 0 -101 -2 -120 -4z"/>
<path d="M2617 4300 c66 -5 160 -16 208 -25 48 -9 89 -14 92 -12 10 11 -184
38 -297 42 l-125 4 122 -9z"/>
<path d="M1927 4220 c-599 -202 -1042 -686 -1193 -1305 -13 -55 -24 -111 -23
-125 0 -14 9 18 20 70 71 341 247 665 495 914 202 202 444 350 719 442 72 24
123 43 115 43 -8 1 -68 -17 -133 -39z"/>
<path d="M3055 4217 c278 -94 502 -232 709 -435 255 -251 434 -577 505 -922
10 -52 20 -87 20 -77 2 36 -31 175 -70 291 -153 461 -486 843 -921 1054 -104
51 -274 114 -338 126 -19 4 24 -13 95 -37z"/>
<path d="M2333 4233 c20 -2 54 -2 75 0 20 2 3 4 -38 4 -41 0 -58 -2 -37 -4z"/>
<path d="M2593 4233 c20 -2 54 -2 75 0 20 2 3 4 -38 4 -41 0 -58 -2 -37 -4z"/>
<path d="M2165 4215 l-50 -14 50 6 c28 3 68 9 90 13 l40 8 -40 0 c-22 0 -62
-6 -90 -13z"/>
<path d="M2745 4220 c22 -4 63 -10 90 -13 l50 -6 -50 14 c-27 7 -68 13 -90 13
l-40 0 40 -8z"/>
<path d="M1960 4161 c-275 -92 -491 -225 -694 -427 -293 -292 -488 -711 -500
-1074 -2 -58 -2 -85 0 -60 20 257 76 465 180 672 224 447 618 768 1119 912 28
7 41 14 30 15 -11 0 -72 -17 -135 -38z"/>
<path d="M2935 4184 c267 -77 515 -209 707 -378 338 -297 553 -722 587 -1161
7 -83 8 -89 10 -38 3 135 -48 368 -119 545 -161 402 -496 755 -888 935 -88 40
-304 114 -330 112 -9 -1 6 -8 33 -15z"/>
<path d="M2467 4002 c-10 -10 -17 -28 -17 -40 0 -50 75 -72 104 -30 21 30 20
44 -4 68 -25 25 -62 26 -83 2z m64 -2 c23 -13 25 -52 4 -70 -8 -7 -25 -10 -39
-6 -32 8 -40 42 -15 67 22 22 24 22 50 9z"/>
<path d="M2314 3970 l7 -45 -40 39 c-22 22 -43 37 -46 34 -9 -9 6 -108 16
-108 5 0 6 19 3 43 l-7 42 40 -37 c21 -21 42 -38 46 -38 10 0 -4 93 -16 105
-6 7 -7 -5 -3 -35z"/>
<path d="M2680 4004 c0 -17 32 -114 38 -114 11 0 73 100 63 100 -5 0 -19 -16
-31 -35 -26 -42 -36 -38 -45 15 -4 22 -11 40 -16 40 -5 0 -9 -3 -9 -6z"/>
<path d="M2060 3959 c-33 -14 -33 -12 -19 -61 17 -58 21 -62 60 -44 l34 15
-34 -2 c-42 -2 -53 19 -17 33 35 13 33 21 -4 14 -23 -5 -30 -3 -30 10 0 8 11
18 25 22 14 3 25 10 25 15 0 11 -8 11 -40 -2z"/>
<path d="M2887 3913 c-13 -44 -14 -63 -2 -51 11 10 32 98 24 98 -4 0 -15 -21
-22 -47z"/>
<path d="M3041 3908 c16 -11 15 -15 -2 -54 -10 -24 -14 -46 -10 -49 5 -2 16
16 26 41 14 36 21 44 36 39 33 -11 20 10 -14 23 -41 15 -58 15 -36 0z"/>
<path d="M1781 3818 c-1 -39 -16 -49 -38 -27 -6 6 -17 9 -25 7 -8 -3 1 -12 22
-23 19 -10 39 -24 43 -31 4 -8 13 -14 18 -14 6 0 7 6 2 13 -4 6 -10 35 -14 62
-6 45 -6 46 -8 13z"/>
<path d="M3198 3786 c-26 -18 -45 -36 -41 -39 3 -4 12 -2 19 4 18 14 64 -17
65 -45 2 -26 18 49 18 87 1 15 -2 27 -7 27 -4 0 -28 -15 -54 -34z m44 -12 c-3
-17 -9 -23 -19 -20 -8 3 -17 6 -20 6 -4 0 2 9 12 20 24 27 33 25 27 -6z"/>
<path d="M1560 3701 l-24 -19 29 -41 c15 -23 31 -44 35 -46 10 -6 70 46 70 62
0 8 -9 17 -19 20 -11 3 -21 13 -24 24 -6 24 -35 24 -67 0z m56 -3 c4 -6 -3
-19 -16 -30 -21 -17 -24 -18 -33 -3 -6 12 -4 20 10 30 22 18 30 18 39 3z m34
-42 c0 -8 -10 -22 -22 -30 -20 -14 -23 -14 -32 1 -6 12 -4 20 10 30 23 17 44
17 44 -1z"/>
<path d="M3383 3697 c-47 -54 -48 -56 -23 -82 13 -14 28 -25 33 -25 6 0 0 11
-13 25 -33 35 -14 54 26 29 l29 -18 -24 27 c-19 21 -22 30 -13 39 9 9 16 8 30
-5 23 -21 39 -22 22 -1 -27 31 -46 34 -67 11z"/>
<path d="M1640 3296 c0 -8 16 -15 41 -19 23 -3 51 -15 63 -27 21 -20 21 -26
21 -516 l0 -496 -22 -18 c-12 -9 -40 -20 -62 -24 -27 -4 -41 -11 -41 -21 0
-13 58 -15 421 -17 l422 -3 100 -257 100 -258 33 0 c21 0 34 6 39 18 207 544
403 1035 424 1062 15 19 42 39 59 45 29 8 32 13 32 52 l0 43 -185 0 -185 0 0
-45 0 -45 44 0 c29 0 52 -7 71 -22 24 -19 27 -26 23 -67 -4 -35 -247 -694
-262 -709 -5 -4 -286 746 -286 762 0 22 32 36 79 36 l41 0 0 45 0 45 -201 0
-201 0 7 55 c6 51 5 55 -14 55 -16 0 -21 -9 -27 -47 -9 -68 -32 -120 -62 -143
-20 -16 -40 -20 -108 -20 l-84 0 0 209 c0 115 3 223 6 240 12 57 40 66 199 66
223 -1 239 -14 281 -232 2 -13 11 -23 19 -23 12 0 15 18 15 99 0 54 3 119 6
145 l7 46 -407 0 c-337 0 -406 -2 -406 -14z m612 -567 c10 -13 49 -105 88
-204 52 -133 69 -187 64 -208 -8 -39 -63 -90 -111 -105 -48 -14 -306 -16 -333
-2 -33 18 -40 66 -40 291 l0 219 80 0 c51 0 91 -5 109 -15 36 -18 59 -66 67
-138 6 -48 10 -57 27 -57 19 0 19 5 12 126 -8 135 -3 147 37 93z"/>
<path d="M703 2725 c0 -22 2 -30 4 -17 2 12 2 30 0 40 -3 9 -5 -1 -4 -23z"/>
<path d="M4293 2725 c0 -22 2 -30 4 -17 2 12 2 30 0 40 -3 9 -5 -1 -4 -23z"/>
<path d="M694 2500 c0 -102 2 -143 3 -92 2 50 2 134 0 185 -1 50 -3 9 -3 -93z"/>
<path d="M4304 2500 c0 -102 2 -143 3 -92 2 50 2 134 0 185 -1 50 -3 9 -3 -93z"/>
<path d="M1034 2515 c-10 -25 4 -45 31 -45 21 0 25 5 25 30 0 25 -4 30 -25 30
-14 0 -28 -7 -31 -15z"/>
<path d="M3910 2500 c0 -28 3 -31 28 -28 21 2 27 8 27 28 0 20 -6 26 -27 28
-25 3 -28 0 -28 -28z"/>
<path d="M766 2340 c6 -165 53 -355 135 -543 167 -386 503 -723 889 -893 188
-82 381 -132 545 -138 55 -2 80 -2 55 0 -479 42 -892 246 -1196 592 -253 289
-396 635 -428 1042 -2 25 -2 -2 0 -60z"/>
<path d="M4227 2353 c-23 -409 -252 -869 -568 -1144 -315 -273 -608 -395
-1059 -443 -19 -2 10 -2 65 0 215 9 498 97 713 223 177 103 396 298 518 461
198 265 323 594 341 898 3 56 4 102 1 102 -3 0 -8 -44 -11 -97z"/>
<path d="M703 2275 c0 -22 2 -30 4 -17 2 12 2 30 0 40 -3 9 -5 -1 -4 -23z"/>
<path d="M4293 2275 c0 -22 2 -30 4 -17 2 12 2 30 0 40 -3 9 -5 -1 -4 -23z"/>
<path d="M712 2205 c0 -16 2 -22 5 -12 2 9 2 23 0 30 -3 6 -5 -1 -5 -18z"/>
<path d="M4275 2185 c-3 -26 -4 -49 -2 -51 3 -3 8 16 12 41 3 26 4 49 2 51 -3
3 -8 -16 -12 -41z"/>
<path d="M722 2150 c0 -14 2 -19 5 -12 2 6 2 18 0 25 -3 6 -5 1 -5 -13z"/>
<path d="M736 2085 c3 -22 23 -94 45 -159 194 -585 676 -1032 1279 -1186 43
-11 87 -20 97 -20 10 1 -31 14 -92 29 -334 87 -612 247 -852 492 -223 228
-367 479 -459 799 -13 47 -22 67 -18 45z"/>
<path d="M4251 2064 c-32 -142 -117 -344 -209 -499 -136 -228 -373 -464 -606
-604 -175 -105 -304 -160 -501 -211 -60 -16 -102 -29 -92 -30 10 0 54 9 97 20
632 161 1126 641 1305 1267 15 51 25 98 23 104 -2 7 -10 -14 -17 -47z"/>
<path d="M1271 1748 c-45 -60 -43 -66 18 -48 19 5 36 8 38 7 1 -2 -8 -18 -22
-37 -13 -18 -22 -36 -20 -40 6 -9 115 20 115 31 0 4 -15 3 -32 -2 -56 -16 -61
-11 -32 26 15 20 24 38 21 41 -3 3 -22 1 -43 -5 -21 -6 -40 -9 -42 -6 -2 2 8
20 23 39 15 20 23 36 17 36 -6 0 -24 -19 -41 -42z"/>
<path d="M3666 1771 c-37 -40 5 -82 45 -45 15 13 22 15 31 6 9 -9 6 -18 -12
-37 -13 -14 -19 -25 -13 -25 16 0 43 35 43 57 0 30 -25 35 -55 11 -35 -27 -59
-10 -30 22 10 11 16 22 13 25 -3 3 -13 -4 -22 -14z"/>
<path d="M3557 1622 c-28 -29 -37 -53 -13 -33 11 10 22 5 50 -20 20 -17 39
-29 42 -26 4 3 -10 20 -30 38 -29 25 -34 34 -25 45 23 27 2 24 -24 -4z"/>
<path d="M1428 1541 c-24 -22 -38 -41 -33 -41 16 0 91 67 83 75 -4 4 -26 -11
-50 -34z"/>
<path d="M3430 1485 c-22 -24 -23 -27 -7 -42 13 -14 21 -15 42 -5 34 16 45 15
45 -3 0 -8 -12 -21 -27 -29 -17 -9 -22 -15 -12 -16 27 0 51 25 47 51 -3 24 -8
26 -60 13 -35 -8 -37 10 -5 37 12 10 17 18 11 19 -6 0 -21 -11 -34 -25z"/>
<path d="M1523 1441 c-39 -47 -33 -61 9 -18 l30 32 -6 -52 c-3 -29 -1 -55 4
-58 8 -5 70 66 70 81 0 4 -13 -5 -30 -21 l-30 -29 0 52 c0 29 -3 52 -7 52 -5
0 -22 -18 -40 -39z"/>
<path d="M3286 1323 c8 -55 23 -92 24 -57 0 29 40 55 63 42 11 -6 17 -5 17 1
0 10 -82 61 -100 61 -8 0 -9 -15 -4 -47z m54 2 c0 -2 -9 -9 -20 -15 -18 -9
-20 -8 -20 15 0 23 2 24 20 15 11 -6 20 -13 20 -15z"/>
<path d="M1695 1308 c-27 -40 -27 -42 -9 -55 32 -24 54 -34 54 -25 0 5 -11 15
-25 22 -14 7 -25 17 -25 22 0 15 31 21 43 9 6 -6 16 -11 22 -11 5 1 -1 10 -14
20 -14 12 -21 26 -17 36 5 14 8 14 28 0 32 -23 48 -19 18 4 -35 28 -44 25 -75
-22z"/>
<path d="M3140 1285 c0 -13 45 -95 52 -95 13 0 10 8 -18 56 -24 40 -34 52 -34
39z"/>
<path d="M2989 1209 c-27 -27 -10 -49 37 -49 43 0 44 -17 2 -35 -25 -11 -28
-14 -12 -15 29 0 57 23 52 46 -3 14 -12 19 -38 19 -40 0 -50 28 -12 33 12 2
22 8 22 13 0 16 -29 10 -51 -12z"/>
<path d="M1987 1159 c-10 -28 -17 -52 -15 -53 9 -8 72 -25 76 -21 2 2 -8 10
-24 17 -16 6 -30 13 -32 14 -1 0 0 8 4 17 4 12 11 14 30 7 13 -5 24 -6 24 -1
0 5 -9 11 -20 14 -11 3 -20 13 -20 22 0 13 7 15 38 10 l37 -5 -30 15 c-45 21
-49 19 -68 -36z"/>
<path d="M2856 1143 c3 -16 7 -33 9 -40 4 -13 -20 -43 -34 -43 -14 0 -28 23
-36 58 -3 17 -10 32 -15 32 -10 0 8 -70 22 -87 14 -18 53 -16 68 2 14 17 5
105 -11 105 -5 0 -7 -12 -3 -27z"/>
<path d="M2176 1123 c-4 -21 -9 -46 -12 -55 -3 -10 -1 -18 4 -18 4 0 13 17 18
38 l10 37 24 -47 c13 -27 27 -48 31 -48 4 0 10 17 13 38 4 20 9 45 12 55 3 9
1 17 -4 17 -6 0 -14 -17 -19 -37 l-10 -38 -23 48 c-13 26 -27 47 -31 47 -4 0
-10 -17 -13 -37z"/>
<path d="M2388 1118 c18 -9 22 -20 23 -62 l2 -51 10 53 c8 41 14 52 29 52 11
0 16 5 13 10 -3 6 -27 10 -53 9 -41 0 -44 -2 -24 -11z"/>
<path d="M2571 1078 c0 -31 4 -60 9 -63 6 -4 10 7 10 24 0 28 3 31 30 31 23 0
30 -5 30 -19 0 -11 5 -23 10 -26 12 -7 12 48 0 85 l-8 25 -1 -27 c-1 -25 -5
-28 -35 -28 -30 0 -35 4 -39 28 -2 15 -5 1 -6 -30z"/>
<path d="M2193 713 c9 -2 23 -2 30 0 6 3 -1 5 -18 5 -16 0 -22 -2 -12 -5z"/>
<path d="M2783 713 c9 -2 23 -2 30 0 6 3 -1 5 -18 5 -16 0 -22 -2 -12 -5z"/>
<path d="M2285 700 c51 -8 212 -13 204 -6 -2 2 -60 6 -129 8 -77 3 -106 2 -75
-2z"/>
<path d="M2590 700 l-95 -6 85 -1 c47 -1 108 2 135 7 46 7 47 7 10 7 -22 -1
-83 -4 -135 -7z"/>
</g>
</svg>
