<?xml version="1.0" standalone="no"?>
<!DOCTYPE svg PUBLIC "-//W3C//DTD SVG 20010904//EN"
 "http://www.w3.org/TR/2001/REC-SVG-20010904/DTD/svg10.dtd">
<svg version="1.0" xmlns="http://www.w3.org/2000/svg"
 width="500.000000pt" height="500.000000pt" viewBox="0 0 500.000000 500.000000"
 preserveAspectRatio="xMidYMid meet">
<metadata>
Created by potrace 1.14, written by Peter Selinger 2001-2017
</metadata>
<g transform="translate(0.000000,500.000000) scale(0.100000,-0.100000)"
fill="#000000" stroke="none">
<path d="M2255 4304 c-314 -45 -654 -193 -895 -389 -72 -59 -232 -218 -281
-280 -169 -214 -302 -498 -361 -772 -21 -97 -23 -133 -23 -368 0 -250 2 -265
29 -379 66 -281 192 -546 355 -751 50 -63 209 -221 281 -280 227 -185 537
-325 829 -374 173 -29 449 -29 622 0 292 49 601 189 829 374 102 83 268 261
342 365 135 190 236 420 295 666 27 115 28 128 28 384 0 237 -3 275 -23 364
-46 207 -146 453 -246 608 -99 154 -255 327 -396 443 -204 166 -469 294 -750
362 -96 23 -127 26 -355 28 -137 2 -263 1 -280 -1z m443 -15 c138 -15 231 -35
362 -78 739 -246 1240 -937 1240 -1711 0 -704 -405 -1333 -1055 -1637 -127
-60 -306 -116 -444 -140 -133 -23 -469 -23 -602 0 -365 63 -705 242 -975 511
-642 643 -701 1663 -136 2381 292 371 740 622 1202 674 110 12 297 13 408 0z"/>
<path d="M2275 4235 c-121 -13 -227 -39 -361 -86 -628 -222 -1080 -794 -1153
-1461 -80 -723 308 -1432 959 -1754 166 -82 341 -138 510 -164 96 -14 443 -14
540 0 544 82 1028 432 1284 930 141 275 187 469 187 800 0 331 -46 525 -187
800 -205 398 -551 702 -968 849 -259 92 -519 119 -811 86z m500 -25 c682 -112
1224 -606 1404 -1280 68 -254 67 -604 -1 -860 -81 -307 -234 -573 -454 -794
-432 -431 -1053 -603 -1649 -455 -421 105 -801 380 -1040 753 -50 78 -131 242
-162 330 -137 381 -139 818 -4 1184 218 591 732 1018 1351 1122 151 26 399 26
555 0z"/>
<path d="M2309 4013 c-1 -4 0 -20 1 -35 2 -35 -10 -35 -40 -3 -13 14 -27 25
-32 25 -10 0 -10 -35 -2 -79 8 -40 24 -40 24 0 l0 30 35 -27 c20 -15 38 -24
41 -21 9 8 -6 106 -17 113 -5 3 -9 2 -10 -3z"/>
<path d="M2460 4005 c-20 -24 -15 -67 10 -87 29 -23 55 -23 80 2 41 41 13 100
-47 100 -17 0 -36 -7 -43 -15z m80 -20 c14 -17 5 -51 -16 -59 -35 -13 -73 41
-47 67 12 12 50 7 63 -8z"/>
<path d="M2680 4001 c0 -32 25 -111 36 -111 11 0 74 88 74 103 0 20 -22 2 -44
-35 l-25 -42 -12 47 c-6 26 -15 47 -20 47 -5 0 -9 -4 -9 -9z"/>
<path d="M2049 3959 l-26 -10 15 -54 c8 -30 21 -55 27 -55 22 0 75 22 75 31 0
11 2 11 -38 0 -26 -8 -32 -7 -32 5 0 8 11 19 25 24 35 13 31 22 -7 18 -41 -4
-48 18 -9 27 17 4 31 11 31 16 0 11 -27 10 -61 -2z"/>
<path d="M2895 3958 c-7 -24 -25 -93 -25 -100 0 -5 4 -8 9 -8 8 0 41 93 41
114 0 11 -21 6 -25 -6z"/>
<path d="M3020 3924 c0 -4 8 -12 17 -19 16 -12 16 -15 -2 -54 -17 -39 -16 -59
3 -48 4 4 14 24 21 45 11 33 17 38 37 34 32 -6 30 4 -3 21 -39 20 -73 30 -73
21z"/>
<path d="M1774 3815 c-6 -35 -7 -35 -30 -20 -14 9 -29 13 -35 9 -6 -3 4 -15
23 -26 18 -11 41 -30 50 -41 19 -25 34 -17 20 10 -6 11 -8 38 -5 61 7 52 -13
58 -23 7z"/>
<path d="M3195 3789 c-51 -38 -54 -47 -13 -46 26 2 35 -3 46 -27 19 -38 32
-18 32 52 0 61 -8 64 -65 21z m43 -29 c-2 -6 -8 -6 -18 0 -13 9 -13 11 0 20
15 10 25 0 18 -20z"/>
<path d="M1572 3710 c-16 -10 -32 -22 -35 -27 -3 -4 11 -28 32 -52 l37 -43 32
27 c37 31 40 50 12 67 -11 7 -20 18 -20 24 0 21 -27 23 -58 4z m38 -19 c0 -15
-28 -33 -40 -26 -8 5 -8 11 1 21 13 15 39 19 39 5z m34 -30 c8 -12 -31 -44
-44 -36 -8 5 -6 13 6 26 19 21 30 24 38 10z"/>
<path d="M3366 3682 l-37 -47 33 -26 c18 -15 37 -25 42 -22 5 4 -2 16 -16 27
-34 28 -26 54 9 31 14 -9 28 -13 31 -10 4 4 -3 14 -15 22 -12 8 -19 21 -16 29
4 11 10 10 33 -6 41 -29 46 -7 6 24 l-34 25 -36 -47z"/>
<path d="M1634 3311 c-15 -16 2 -31 42 -37 61 -9 81 -30 89 -96 9 -74 2 -919
-8 -940 -10 -19 -49 -36 -92 -40 -19 -2 -31 -9 -33 -20 -3 -17 22 -18 421 -18
l424 0 100 -257 100 -258 38 0 39 0 201 518 c110 284 208 530 218 546 9 16 35
38 57 48 37 17 39 20 40 63 l0 45 -185 1 -185 0 0 -47 0 -47 51 -7 c69 -10 93
-34 85 -87 -5 -32 -249 -685 -260 -696 -5 -5 -275 721 -278 748 -3 23 1 26 55
34 l57 9 0 46 0 46 -195 -4 -195 -3 0 56 c0 50 -2 56 -20 56 -23 0 -23 0 -38
-85 -9 -48 -19 -66 -47 -92 -33 -31 -39 -33 -110 -33 l-75 0 0 233 c0 185 3
237 14 253 13 17 30 19 165 22 225 5 259 -17 284 -179 9 -60 13 -69 31 -69 20
0 21 6 23 148 l2 147 -405 0 c-223 0 -408 -2 -410 -4z m621 -591 c8 -16 47
-109 85 -206 65 -167 68 -179 56 -208 -34 -82 -117 -110 -307 -104 -169 4
-159 -14 -159 285 l0 235 86 -3 c82 -4 87 -5 114 -36 16 -18 32 -49 35 -70 15
-93 21 -108 40 -108 17 0 18 8 16 123 -3 128 5 148 34 92z"/>
<path d="M1030 2500 c0 -29 2 -31 33 -28 27 2 32 7 32 28 0 21 -5 26 -32 28
-31 3 -33 1 -33 -28z"/>
<path d="M3904 2516 c-11 -28 4 -48 33 -44 22 2 28 8 28 28 0 20 -6 26 -28 28
-18 2 -29 -2 -33 -12z"/>
<path d="M1273 1755 c-44 -59 -43 -69 8 -61 43 7 44 2 11 -37 -27 -30 -2 -38
61 -20 38 10 55 19 48 26 -6 6 -21 6 -42 -2 -41 -14 -46 -8 -20 25 31 39 27
47 -20 39 -44 -8 -45 -3 -11 38 10 11 12 21 6 26 -5 6 -22 -8 -41 -34z"/>
<path d="M3663 1778 c-19 -24 -22 -46 -9 -64 14 -18 25 -16 64 12 21 16 22 15
22 -4 0 -12 -8 -25 -17 -31 -10 -5 -15 -12 -12 -15 11 -12 36 5 48 31 10 22 9
29 -4 42 -14 15 -18 14 -47 -2 -35 -20 -48 -15 -30 13 7 11 12 22 12 25 0 10
-18 5 -27 -7z"/>
<path d="M3545 1614 c-27 -36 -28 -57 -1 -35 12 10 22 8 51 -15 49 -37 59 -20
11 21 -24 20 -34 35 -27 39 6 4 11 11 11 17 0 19 -18 8 -45 -27z"/>
<path d="M1425 1540 c-21 -22 -36 -43 -32 -47 8 -7 87 65 87 79 0 17 -17 7
-55 -32z"/>
<path d="M3427 1492 c-37 -41 -9 -75 44 -55 39 15 46 -1 12 -25 -35 -25 -23
-41 12 -18 34 22 41 44 22 63 -13 14 -20 14 -47 3 -39 -16 -52 -4 -22 20 12
10 22 21 22 24 0 13 -28 5 -43 -12z"/>
<path d="M1526 1448 c-20 -23 -36 -45 -36 -50 0 -16 19 -7 39 18 l21 27 0 -52
c0 -28 4 -51 9 -51 16 0 82 81 75 92 -4 7 -17 -1 -34 -22 l-27 -34 4 51 c3 29
1 53 -5 57 -6 3 -26 -13 -46 -36z"/>
<path d="M3278 1375 c-8 -9 18 -130 27 -125 5 3 8 12 7 21 -3 18 41 45 57 35
6 -4 16 -4 22 0 7 4 -10 20 -42 40 -56 35 -62 37 -71 29z m53 -58 c-12 -12
-31 0 -31 19 0 12 3 12 20 2 11 -7 16 -16 11 -21z"/>
<path d="M1696 1316 c-14 -25 -26 -48 -26 -53 0 -12 61 -45 69 -37 3 3 -4 13
-16 21 -13 9 -23 22 -23 29 0 17 5 17 32 3 28 -15 36 -2 9 17 -32 23 -11 41
22 19 15 -9 28 -12 31 -7 5 8 -54 52 -69 52 -2 0 -15 -20 -29 -44z"/>
<path d="M3140 1278 c0 -18 43 -91 53 -90 10 3 8 10 -16 60 -20 41 -37 55 -37
30z"/>
<path d="M2985 1214 c-26 -26 -14 -48 28 -54 45 -6 54 -24 15 -28 -34 -4 -37
-22 -4 -22 30 0 59 27 52 47 -3 8 -6 17 -6 19 0 2 -19 4 -41 4 -36 0 -40 2
-29 15 7 8 19 15 26 15 8 0 14 5 14 10 0 16 -37 12 -55 -6z"/>
<path d="M1986 1167 c-9 -23 -16 -48 -16 -54 0 -10 50 -33 71 -33 20 0 7 20
-16 26 -38 9 -33 37 5 29 37 -8 41 12 5 21 -14 4 -24 11 -22 18 5 12 10 12 45
1 31 -9 28 13 -4 25 -42 16 -51 12 -68 -33z"/>
<path d="M2853 1123 c2 -42 -1 -48 -19 -51 -18 -3 -23 5 -33 42 -14 56 -36 63
-26 9 10 -57 22 -73 53 -73 47 0 63 34 46 98 -11 39 -24 24 -21 -25z"/>
<path d="M2176 1143 c-14 -48 -17 -91 -7 -97 7 -4 13 9 17 35 l7 42 24 -46
c34 -68 44 -63 58 31 8 53 -9 57 -22 5 l-9 -38 -22 43 c-24 45 -38 53 -46 25z"/>
<path d="M2642 1116 c4 -17 1 -26 -8 -26 -7 0 -19 -3 -28 -6 -11 -4 -16 0 -16
14 0 20 -17 39 -26 29 -8 -7 8 -117 17 -117 5 0 9 11 9 24 0 16 7 26 23 30 34
9 37 8 37 -19 0 -14 5 -25 10 -25 17 0 8 112 -9 118 -10 3 -13 -2 -9 -22z"/>
<path d="M2370 1120 c0 -5 10 -10 21 -10 20 0 21 -4 15 -51 -5 -40 -4 -50 6
-47 8 3 14 24 16 51 3 39 6 47 23 47 10 0 19 5 19 10 0 6 -22 10 -50 10 -27 0
-50 -4 -50 -10z"/>
</g>
</svg>
